<svg xmlns="http://www.w3.org/2000/svg" width="113.906" height="20.037" viewBox="0 0 113.906 20.037"><defs><style>.a{fill:#e32;}</style></defs><path class="a" d="M0,19.663V0H8.771c3.738,0,5.66,2.39,5.66,5.006a4.4,4.4,0,0,1-3.391,4.512,4.732,4.732,0,0,1,3.778,4.806c0,2.976-1.949,5.34-5.713,5.34Z"/><path class="a" d="M0,8.543V0H3.764V8.423a2.75,2.75,0,0,0,3.03,2.923A2.753,2.753,0,0,0,9.811,8.423V0h3.751V8.53c0,3.578-2.149,6.087-6.755,6.087S0,12.081,0,8.543Z" transform="translate(15.965 5.42)"/><path class="a" d="M0,14.243v-2.8L6.421,3.27H0V0H11.52V2.683l-6.541,8.29H11.64v3.27Z" transform="translate(30.769 5.42)"/><path class="a" d="M0,14.243v-2.8L6.421,3.27H0V0H11.52V2.683l-6.541,8.29H11.64v3.27Z" transform="translate(43.638 5.42)"/><path class="a" d="M0,19.663V0H13.643V3.684H4.192V7.809h7.115v3.684H4.192v8.17Z" transform="translate(56.68)"/><path class="a" d="M0,7.462A7.271,7.271,0,0,1,7.368,0C11.641,0,14.5,3.191,14.5,7.809V8.69H3.911a3.827,3.827,0,0,0,4.1,3.191,5.993,5.993,0,0,0,3.778-1.389l1.682,2.483a8.886,8.886,0,0,1-5.861,1.975C3.271,14.951,0,12.028,0,7.462Z" transform="translate(69.041 5.073)"/><path class="a" d="M0,7.462A7.271,7.271,0,0,1,7.368,0C11.641,0,14.5,3.191,14.5,7.809V8.69H3.911a3.827,3.827,0,0,0,4.1,3.191,5.993,5.993,0,0,0,3.778-1.389l1.682,2.483a8.886,8.886,0,0,1-5.861,1.975C3.271,14.951,0,12.028,0,7.462Z" transform="translate(84.552 5.073)"/><path class="a" d="M0,14.3V0H5.74c4.5,0,7.742,2.7,7.742,7.141S10.252,14.3,5.766,14.3Z" transform="translate(100.424 5.393)"/></svg>