<svg xmlns="http://www.w3.org/2000/svg" width="117.882" height="22.829" viewBox="0 0 117.882 22.829"><defs><style>.a{fill:#1877f2;}</style></defs><g transform="translate(-0.059 -0.059)"><path class="a" d="M40.044,15.437V14.6c0-4.529,2.466-7.078,7.138-7.078,3.871,0,6.639,1.85,6.639,6.764v2.4h-9.38c.267,2.326,1.307,2.943,3.726,2.943a12.913,12.913,0,0,0,4.47-.91l.829,2.992s-1.816,1.123-5.83,1.123C43.507,22.829,40.044,21.315,40.044,15.437ZM87.9,15.051C87.9,10.2,90.427,7.5,95.224,7.5c4.007,0,7.268,2.083,7.268,7.613,0,5.313-2.9,7.661-7.259,7.661C92.255,22.772,87.9,21.7,87.9,15.051Zm-16.091,0c0-4.848,2.525-7.553,7.323-7.553,4.006,0,7.267,2.083,7.267,7.613,0,5.313-2.9,7.661-7.258,7.661C76.164,22.772,71.81,21.7,71.81,15.051Zm-44.159.085c0-1.785-.086-7.624,7.519-7.624,3.053,0,4.327.971,4.327.971l-1.024,3.179a6.689,6.689,0,0,0-2.932-.7,3.168,3.168,0,0,0-3.479,3.4l0,1.554a3.243,3.243,0,0,0,3.482,3.474,7.273,7.273,0,0,0,2.9-.708l1.022,3.113s-1.166.977-4.279.977C27.95,22.771,27.651,17.531,27.651,15.135Zm32.222,5.152v2.191l-4.172,0V.446L60.13.06V9.851c.639-1.714,2.74-2.345,4.138-2.345,4.119,0,6.034,3.1,6.034,7.5,0,5.544-2.444,7.762-6.035,7.762A4.587,4.587,0,0,1,59.873,20.288ZM11.46,15.006c0-4.4,1.885-7.5,6-7.5.066,0,.132,0,.2,0a4.329,4.329,0,0,1,4.06,2.549V7.791h4.225V22.478H21.72V20.288a4.34,4.34,0,0,1-4.225,2.48C13.9,22.768,11.46,20.55,11.46,15.006Zm101.718,7.471-4.571-7.185v7.185h-4.442V.446L108.607.06V14.826l4.407-7.036H117.7l-4.6,7.287,4.774,7.4Zm-110.152,0V11.4H0V7.79H3.026V5.223C3.026,2.182,4.364,0,8.794,0,9.731,0,11.2.189,11.2.189v3.35H9.657c-1.574,0-2.189.479-2.189,1.8V7.79h3.675L10.815,11.4H7.468v11.08Z" transform="translate(0.059 0.059)"/></g></svg>