<svg xmlns="http://www.w3.org/2000/svg" width="47.725" height="46.669" viewBox="0 0 47.725 46.669"><defs><style>.a{fill:#ff6f64;}</style></defs><g transform="translate(0)"><path class="a" d="M25.955,46.454a1.012,1.012,0,0,1-.172-1.422A31.949,31.949,0,0,0,31.814,27a1,1,0,0,1,.781-1c.04-.012.083-.023.125-.031A1,1,0,0,1,33.815,27a33.984,33.984,0,0,1-6.438,19.282,1,1,0,0,1-.8.387A1.016,1.016,0,0,1,25.955,46.454ZM17.5,46.125a1.01,1.01,0,0,1,.249-1.407c3.36-2.4,5.668-6.211,7.094-9.875a28.077,28.077,0,0,0,1.969-8.718c0-2.278-.574-4.047-1.562-4.719a1,1,0,0,1,.344-1.844,1.008,1.008,0,0,1,.75.187c1.906,1.293,2.469,3.785,2.469,6.376a29.015,29.015,0,0,1-2.125,9.437c-1.516,3.9-3.961,8.086-7.781,10.813a1.008,1.008,0,0,1-1.406-.25Zm-6.813-2.844a1,1,0,0,1,.531-1.312,17.968,17.968,0,0,0,7.938-6.718.993.993,0,1,1,1.656,1.093A20.119,20.119,0,0,1,12,43.813a1,1,0,0,1-1.312-.532Zm23.172-.1a.992.992,0,0,1-.141-1.023s.778-2.062,1.562-5.031a1.006,1.006,0,0,1,.813-.781h.094a1,1,0,0,1,1.031,1.282c-.808,3.066-1.625,5.218-1.625,5.218a1,1,0,0,1-.766.691,1.012,1.012,0,0,1-.192.019A.989.989,0,0,1,33.862,43.179ZM4.936,38.5A1,1,0,0,1,5.814,37c5.137,0,8.883-3.754,10.844-7.531a49.433,49.433,0,0,0,1.906-5.219c.676-1.9,1.477-3.8,3.218-4.749a.971.971,0,0,1,.344-.125,1,1,0,0,1,.625,1.875c-.91.492-1.684,1.911-2.313,3.687a44.064,44.064,0,0,1-2,5.469C16.244,34.637,11.912,39,5.814,39H5.8A1,1,0,0,1,4.936,38.5Zm35.738-1.3a1,1,0,0,1-.641-1.265,32.483,32.483,0,0,0,0-16.282C38.213,13.25,33.916,7.593,23.752,7a1.01,1.01,0,0,1-.282-2h.188a.987.987,0,0,1,.219,0C34.775,5.637,40,12.18,41.971,19.125a33.3,33.3,0,0,1-.031,17.438,1,1,0,0,1-1.265.641Zm-3.656-3.063a1,1,0,0,1-.8-1.172A34.122,34.122,0,0,0,36.815,27c0-6.555-2.684-11.422-7.062-13.657a1,1,0,0,1,.219-1.875.88.88,0,0,1,.094-.031,1.017,1.017,0,0,1,.594.125c5.136,2.622,8.156,8.329,8.156,15.438a36.106,36.106,0,0,1-.625,6.344,1,1,0,0,1-1.172.8ZM1.9,33.5A1,1,0,0,1,2.783,32a9.042,9.042,0,0,0,6-1.876,14.484,14.484,0,0,0,3.469-4.594A1,1,0,0,1,12.939,25h.094a1,1,0,0,1,1,1.5,16.187,16.187,0,0,1-4,5.188A11.243,11.243,0,0,1,2.783,34h-.01A1.006,1.006,0,0,1,1.9,33.5Zm19-.344a1,1,0,0,1-.023-1.066,23.253,23.253,0,0,0,1.937-7.157A1,1,0,0,1,23.658,24a1,1,0,0,1,1.156,1.062,25.83,25.83,0,0,1-2.126,7.844,1,1,0,0,1-1.788.255ZM1.127,29a1,1,0,0,1,.187-2c2.922.269,4.563-1.008,6.219-3.156S10.631,18.7,12.627,16a1,1,0,0,1,.656-.437h.187a1,1,0,0,1,.751,1.624c-1.836,2.485-3.238,5.465-5.094,7.875-1.711,2.222-3.985,3.976-7.171,3.976Q1.551,29.038,1.127,29Zm44.594-4.5S44.478,12.273,36.658,6.875A.989.989,0,1,1,37.783,5.25c8.868,6.125,9.938,19.063,9.938,19.063a1.006,1.006,0,0,1-.906,1.094q-.047,0-.094,0A1.006,1.006,0,0,1,45.721,24.5ZM.377,23.82a1,1,0,0,1,.406-1.758,8.324,8.324,0,0,0,3.782-3.25,1,1,0,0,1,.625-.407.964.964,0,0,1,.157-.031A1,1,0,0,1,6.189,20a10.17,10.17,0,0,1-4.75,3.938A1,1,0,0,1,.377,23.82Zm31.512-.309a1,1,0,0,1-.731-.731A9.118,9.118,0,0,0,28.6,18.688,6.942,6.942,0,0,0,23.814,17a7.076,7.076,0,0,0-4.874,1.656,13.688,13.688,0,0,0-3,4.125,1.006,1.006,0,1,1-1.781-.937,15.477,15.477,0,0,1,3.5-4.719A9.254,9.254,0,0,1,23.814,15a9.07,9.07,0,0,1,6.094,2.187,11.139,11.139,0,0,1,3.156,5,1,1,0,0,1-1.175,1.324ZM7.017,16.953a1.008,1.008,0,0,1-.3-1.391c2.59-4.028,5.934-8.786,12.844-10.157a.514.514,0,0,1,.063-.031,1,1,0,0,1,.312,1.969c-6.176,1.227-8.973,5.328-11.532,9.312a1.008,1.008,0,0,1-1.391.3ZM2.389,15.84a1,1,0,0,1-.168-1.809,10.545,10.545,0,0,0,1.063-1.375C3.791,11.93,4.4,11,5.158,9.968A27.76,27.76,0,0,1,11.534,3.5a.985.985,0,0,1,.437-.187h.094a1,1,0,0,1,.594,1.843,25.615,25.615,0,0,0-5.875,6c-.723.988-1.348,1.9-1.876,2.656A7.748,7.748,0,0,1,3.44,15.593a1,1,0,0,1-1.051.247Zm13.082-1.652a1,1,0,0,1,.156-1.407A12.565,12.565,0,0,1,23.814,10a16.4,16.4,0,0,1,2.875.25,1,1,0,1,1-.344,1.968A14.353,14.353,0,0,0,23.814,12a10.415,10.415,0,0,0-6.937,2.344,1,1,0,0,1-1.406-.156ZM32.846,4.343A21.319,21.319,0,0,0,22.814,2a17.424,17.424,0,0,0-7.031,1.407,1,1,0,1,1-.813-1.813A19.6,19.6,0,0,1,22.814,0,23.48,23.48,0,0,1,33.783,2.562a1.006,1.006,0,1,1-.938,1.781Z"/></g></svg>