<svg xmlns="http://www.w3.org/2000/svg" width="95.872" height="32.546" viewBox="0 0 95.872 32.546"><defs><style>.a{fill:#ea4335;}.b{fill:#fbbc05;}.c{fill:#4285f4;}.d{fill:#34a853;}</style></defs><g transform="translate(-0.128 -0.172)"><path class="a" d="M0,8.132a7.914,7.914,0,1,1,15.822,0A7.914,7.914,0,1,1,0,8.132Z" transform="translate(25.333 9.167)"/><path class="b" d="M0,8.132a7.914,7.914,0,1,1,15.822,0A7.914,7.914,0,1,1,0,8.132Z" transform="translate(42.4 9.167)"/><path class="c" d="M.633,18.759l3.015-1.294A4.371,4.371,0,0,0,7.619,20.35c2.6,0,4.21-1.653,4.21-4.766v-1.17h-.122a5.3,5.3,0,0,1-4.153,1.849A7.94,7.94,0,0,1,0,8.162C0,3.571,3.613,0,7.556,0a5.389,5.389,0,0,1,4.153,1.819h.122V.5h3.289v14.6c0,6.006-3.434,8.459-7.5,8.459A7.522,7.522,0,0,1,.633,18.759ZM15.118.5Zm0,0v0Z" transform="translate(59.46 9.167)"/><path class="d" d="M3.378,0V23.833H0V0Z" transform="translate(76.622 1.1)"/><path class="a" d="M0,8.132C0,3.3,3.374,0,7.439,0c4.092,0,6.094,3.359,6.748,5.174l.359.923L4,10.6a4.006,4.006,0,0,0,3.822,2.464,4.473,4.473,0,0,0,3.883-2.252L14.4,12.661A7.818,7.818,0,0,1,0,8.132Z" transform="translate(81.454 9.163)"/><path class="c" d="M12.42,15.011v-3.45H23.694a11.781,11.781,0,0,1,.167,2.083,11.607,11.607,0,0,1-2.9,8.07,11.028,11.028,0,0,1-8.54,3.542A12.63,12.63,0,0,1,12.423,0a11.491,11.491,0,0,1,8.391,3.48L18.453,5.914A8.4,8.4,0,0,0,12.42,3.45a8.928,8.928,0,0,0-8.782,9.178,8.928,8.928,0,0,0,8.782,9.178A8.073,8.073,0,0,0,18.6,19.279a7.256,7.256,0,0,0,1.813-4.272Z" transform="translate(0.128 0.172)"/></g></svg>