<svg xmlns="http://www.w3.org/2000/svg" width="45.925" height="45.975" viewBox="0 0 45.925 45.975"><defs><style>.a{fill:#ff6f64;}</style></defs><g transform="translate(0)"><path class="a" d="M.013,45.135a1,1,0,0,1,.641-1.1A11.092,11.092,0,0,0,7.09,38.756a37.647,37.647,0,0,0,2.938-7.844c.844-2.762,1.781-5.531,3.657-7.719a11.589,11.589,0,0,1,7.969-3.812,3.959,3.959,0,0,1,.062-1,1.013,1.013,0,0,1,.157-.406L34.028.444a.988.988,0,0,1,.718-.438,1.01,1.01,0,0,1,.977.5A1,1,0,0,1,35.653,1.6L23.716,18.85a2.779,2.779,0,0,0,.5,1.906,8.851,8.851,0,0,0,2.156,2.219,8.843,8.843,0,0,0,4.844,1.813L44.028.568a1.006,1.006,0,0,1,1.781.938L32.653,26.319a.994.994,0,0,1-.688.5c-.1.02-.207.02-.312.031-.18,7.762-2.629,12.762-7.594,15.562C18.9,45.326,11.336,45.975.966,45.975A1,1,0,0,1,.013,45.135Z"/></g></svg>