<svg xmlns="http://www.w3.org/2000/svg" width="49.991" height="39" viewBox="0 0 49.991 39"><defs><style>.a{fill:#ff6f64;}</style></defs><path class="a" d="M29.031,38.282c-.723-1.148-2-2.669-3.375-4.438-1.582,1.09-3.028,2.1-4.031,2.938L21,37.312l-.625-.531C15.215,32.48,0,25.394,0,11.906A11.918,11.918,0,0,1,11.906,0,11.858,11.858,0,0,1,21,4.438a11.786,11.786,0,0,1,21,7.468,16.928,16.928,0,0,1-.313,3.156,8.387,8.387,0,0,1,2.25.375,8.768,8.768,0,0,1,5.625,11.031C46.524,35.8,34.555,36.968,30.25,38.687L29.469,39Z"/></svg>